# xmcd
#
# Track frame offsets:
#	297
#	39464
#	84328
#	121583
#	169642
#	212436
#	251094
#	287836
#
# Disc length: 4554 seconds
#
# Revision: 1
# Processed by: cddbd v1.5.2PL0 Copyright (c) Steve Scherf et al.
# Submitted via: audiograbber 1.83.01
#
DISCID=6211c708
DTITLE=Perfect Stranger - Leap of Faith - CD Two
DYEAR=1900
DGENRE=
TTITLE0=Roy RosenfeID - My Bubble (Perfect Stranger Remix)
TTITLE1=Felguk - Guess What (Perfect Stranger 2.7GHz Remix)
TTITLE2=Liquid Soul and Perfect Stranger - Wild Cave (Perfect Stranger 2012 Live 
TTITLE2=Edit)
TTITLE3=Perfect Stranger - Prata Da Casa (2012 Live Edit)
TTITLE4=Perfect Stranger - A Mosquito Bit My Leg (2012 Live Edit)
TTITLE5=Sun Control Species and Perfect Stranger - Renegade Mutant Muffin
TTITLE6=Tristan - Bombscare (Perfect Stranger Large Vagator Mix)
TTITLE7=LOUD - Sundance (Perfect Stranger 2012 Live Edit)
EXTD=
EXTT0=
EXTT1=
EXTT2=
EXTT3=
EXTT4=
EXTT5=
EXTT6=
EXTT7=
PLAYORDER=
